Coordinates
version=1
nRows=30
nColumns=38
inDegrees=no

Units are S.I. units (second, meters, Newtons, ...)
If the header above contains a line with 'inDegrees', this indicates whether rotational values are in degrees (yes) or radians (no).

endheader
time	pelvis_tilt	pelvis_list	pelvis_rotation	pelvis_tx	pelvis_ty	pelvis_tz	hip_flexion_r	hip_adduction_r	hip_rotation_r	knee_angle_r	ankle_angle_r	subtalar_angle_r	mtp_angle_r	hip_flexion_l	hip_adduction_l	hip_rotation_l	knee_angle_l	ankle_angle_l	subtalar_angle_l	mtp_angle_l	lumbar_extension	lumbar_bending	lumbar_rotation	arm_flex_r	arm_add_r	arm_rot_r	elbow_flex_r	pro_sup_r	wrist_flex_r	wrist_dev_r	arm_flex_l	arm_add_l	arm_rot_l	elbow_flex_l	pro_sup_l	wrist_flex_l	wrist_dev_l
0	-3.11406	1.44785	-1.50286	0.64401	0.174354	1.04058	0.409468	-0.0454957	-0.27868	0.447608	-0.0586819	0	0	-0.3513	0.0299499	-0.230609	0.300615	-0.0893819	0	0	-0.309685	0.0523636	-0.191562	-0.129299	-0.211662	-0.105219	0.493452	0.451038	0	0	0.070945	-0.84578	0.408931	1.08778	1.21778	0	0
0.01	-3.09707	1.45409	-1.51722	0.643865	0.184476	1.03861	0.416709	-0.0450269	-0.254699	0.4579	-0.0604549	0	0	-0.349477	0.029371	-0.228007	0.311485	-0.0858135	0	0	-0.301052	0.0516907	-0.186877	-0.137701	-0.220973	-0.0728655	0.500566	0.425142	0	0	0.0891855	-0.842956	0.426452	1.08428	1.2253	0	0
0.02	-3.09052	1.45641	-1.51975	0.643681	0.195381	1.03716	0.417204	-0.0433568	-0.235116	0.469477	-0.0633828	0	0	-0.35336	0.026371	-0.228353	0.321045	-0.0851597	0	0	-0.297526	0.0539909	-0.189843	-0.139587	-0.218712	-0.085316	0.503863	0.42617	0	0	0.0907836	-0.841192	0.427061	1.08567	1.22995	0	0
0.03	-3.08768	1.45772	-1.51777	0.643498	0.206608	1.0359	0.414955	-0.0410197	-0.21699	0.483294	-0.0664073	0	0	-0.358416	0.022339	-0.227999	0.330286	-0.0861993	0	0	-0.294405	0.0570458	-0.196343	-0.139497	-0.218456	-0.0874085	0.504634	0.426648	0	0	0.0872908	-0.841675	0.427714	1.08814	1.22619	0	0
0.04	-3.08957	1.45938	-1.51126	0.643371	0.218129	1.03463	0.41185	-0.0376921	-0.198401	0.499419	-0.0696979	0	0	-0.362195	0.0170609	-0.230006	0.342219	-0.0869213	0	0	-0.29152	0.0610919	-0.200854	-0.142825	-0.22008	-0.0867726	0.509388	0.420039	0	0	0.0819026	-0.839093	0.423887	1.09042	1.22941	0	0
0.05	-3.09542	1.46103	-1.5006	0.64329	0.229948	1.03341	0.406679	-0.0334767	-0.180135	0.515809	-0.0733444	0	0	-0.365463	0.0106974	-0.23275	0.35573	-0.0883965	0	0	-0.288206	0.0657004	-0.205529	-0.147028	-0.222381	-0.084941	0.514272	0.413899	0	0	0.0735626	-0.835091	0.417117	1.09233	1.23295	0	0
0.06	-3.10294	1.46321	-1.4877	0.643258	0.24213	1.03221	0.3997	-0.0286756	-0.163346	0.531431	-0.0777256	0	0	-0.367861	0.00351956	-0.234952	0.370469	-0.090894	0	0	-0.287214	0.0713754	-0.202369	-0.152011	-0.192084	-0.213535	0.515611	0.537491	0	0	0.075412	-0.828533	0.419664	1.0928	1.23771	0	0
0.07	-3.11663	1.46384	-1.46822	0.643175	0.254507	1.03115	0.390608	-0.0238016	-0.15212	0.546338	-0.0836697	0	0	-0.371777	-0.00477489	-0.236651	0.385712	-0.0942903	0	0	-0.28168	0.0766953	-0.212689	-0.158184	-0.216671	-0.125659	0.522643	0.441492	0	0	0.0560697	-0.823949	0.405674	1.0941	1.23969	0	0
0.08	-3.13575	1.46395	-1.44333	0.643118	0.266948	1.03041	0.383918	-0.0207359	-0.148871	0.559632	-0.0897566	0	0	-0.375809	-0.0134046	-0.235921	0.401092	-0.0985003	0	0	-0.278816	0.0834416	-0.21708	-0.162105	-0.219621	-0.124151	0.524395	0.435856	0	0	0.0464596	-0.818223	0.403154	1.09302	1.24004	0	0
0.09	3.11506	1.46259	-1.40633	0.643034	0.279345	1.03018	0.378462	-0.0180933	-0.150885	0.566833	-0.0962329	0	0	-0.380004	-0.0233483	-0.236071	0.418572	-0.10531	0	0	-0.27773	0.0923917	-0.2194	-0.165398	-0.223762	-0.121731	0.525776	0.430468	0	0	0.0377712	-0.809784	0.401108	1.08939	1.2405	0	0
0.1	3.07328	1.45974	-1.36161	0.643003	0.291787	1.03045	0.371599	-0.0135023	-0.154788	0.568335	-0.107566	0	0	-0.384422	-0.0340463	-0.237201	0.437898	-0.114458	0	0	-0.278512	0.102847	-0.218952	-0.168284	-0.228987	-0.117506	0.526429	0.426519	0	0	0.0297521	-0.799164	0.399373	1.08391	1.24266	0	0
0.11	3.02814	1.45624	-1.31599	0.64315	0.304315	1.0311	0.363566	-0.00653719	-0.158649	0.571787	-0.127625	0	0	-0.38786	-0.0445477	-0.240266	0.459785	-0.125391	0	0	-0.28006	0.11355	-0.216231	-0.170431	-0.234675	-0.111998	0.525985	0.424576	0	0	0.0198574	-0.78691	0.395649	1.07761	1.24558	0	0
0.12	2.98577	1.45333	-1.27616	0.643504	0.316893	1.03195	0.356122	0.000942109	-0.160443	0.57988	-0.149466	0	0	-0.388703	-0.0533056	-0.244906	0.48516	-0.139461	0	0	-0.28314	0.124176	-0.206968	-0.1711	-0.219391	-0.188396	0.522908	0.494487	0	0	0.0125079	-0.771332	0.391244	1.0702	1.25268	0	0
0.13	2.94882	1.45261	-1.2438	0.644017	0.329533	1.03295	0.351707	0.00726339	-0.158199	0.591476	-0.158607	0	0	-0.384513	-0.0601098	-0.249944	0.514896	-0.156628	0	0	-0.279239	0.131377	-0.208474	-0.169858	-0.240115	-0.121869	0.519934	0.426672	0	0	-0.0142684	-0.755831	0.370243	1.06376	1.25613	0	0
0.14	2.92245	1.45263	-1.22325	0.644798	0.342105	1.03398	0.347773	0.0127613	-0.15119	0.603278	-0.162738	0	0	-0.377203	-0.0646278	-0.253245	0.547902	-0.173488	0	0	-0.278137	0.137188	-0.202544	-0.170986	-0.242687	-0.12604	0.517751	0.433896	0	0	-0.0307502	-0.742644	0.363719	1.05713	1.25442	0	0
0.15	2.90363	1.45313	-1.21032	0.645689	0.354505	1.03505	0.343605	0.0178855	-0.143148	0.615519	-0.164268	0	0	-0.366325	-0.0682588	-0.255651	0.584715	-0.192248	0	0	-0.277292	0.141611	-0.196803	-0.171477	-0.243972	-0.133195	0.515478	0.440078	0	0	-0.0469952	-0.730478	0.359123	1.05064	1.24998	0	0
0.16	2.88937	1.45323	-1.20051	0.646531	0.366652	1.03623	0.337892	0.0221526	-0.139015	0.626027	-0.162809	0	0	-0.35282	-0.0720335	-0.256098	0.624512	-0.211619	0	0	-0.277483	0.145719	-0.192197	-0.171059	-0.244	-0.143078	0.512977	0.445331	0	0	-0.0625895	-0.719085	0.356266	1.04446	1.2431	0	0
0.17	2.87652	1.45242	-1.18983	0.647275	0.378581	1.03753	0.329452	0.0255938	-0.141555	0.632163	-0.161252	0	0	-0.337258	-0.0765914	-0.253722	0.667611	-0.227883	0	0	-0.278772	0.150226	-0.189735	-0.171092	-0.247871	-0.13632	0.512345	0.432263	0	0	-0.0802923	-0.705243	0.346436	1.03828	1.24509	0	0
0.18	2.86278	1.45183	-1.17645	0.647984	0.390311	1.0388	0.319911	0.0282446	-0.14894	0.634339	-0.159804	0	0	-0.318603	-0.0814351	-0.248494	0.714122	-0.244113	0	0	-0.279257	0.154521	-0.189524	-0.169619	-0.250979	-0.129222	0.509495	0.421395	0	0	-0.0961876	-0.695061	0.345038	1.03232	1.23756	0	0
0.19	2.84929	1.45206	-1.16207	0.64871	0.40178	1.04003	0.310442	0.0306862	-0.158707	0.634663	-0.158061	0	0	-0.296716	-0.0858394	-0.2399	0.763369	-0.2557	0	0	-0.280866	0.158306	-0.185679	-0.167387	-0.237826	-0.185041	0.50403	0.473782	0	0	-0.102974	-0.689991	0.361675	1.02641	1.21906	0	0
0.2	2.83586	1.45293	-1.14701	0.649569	0.412894	1.04082	0.302023	0.0330133	-0.168445	0.636062	-0.151743	0	0	-0.27212	-0.0899388	-0.229498	0.814801	-0.254383	0	0	-0.280048	0.161224	-0.185184	-0.168197	-0.244919	-0.158362	0.504495	0.43994	0	0	-0.109595	-0.689764	0.385422	1.02144	1.19109	0	0
0.21	2.82888	1.45433	-1.13789	0.6504	0.423732	1.0416	0.293623	0.0351975	-0.175033	0.637786	-0.146242	0	0	-0.246278	-0.0931392	-0.219107	0.865813	-0.242885	0	0	-0.279756	0.162478	-0.185888	-0.165628	-0.24456	-0.15783	0.501486	0.438547	0	0	-0.126685	-0.676817	0.372991	1.01615	1.20218	0	0
0.22	2.8338	1.45522	-1.14089	0.651257	0.434293	1.04243	0.283784	0.0373661	-0.176306	0.638782	-0.137238	0	0	-0.221042	-0.0946983	-0.210623	0.915158	-0.216095	0	0	-0.280946	0.162181	-0.183928	-0.164261	-0.247046	-0.145567	0.49956	0.423529	0	0	-0.133471	-0.672686	0.386899	1.01056	1.19142	0	0
0.23	2.85322	1.45431	-1.15865	0.65211	0.44464	1.04352	0.271243	0.0394102	-0.174262	0.639453	-0.127631	0	0	-0.198055	-0.0944396	-0.204644	0.961145	-0.186045	0	0	-0.285157	0.160578	-0.180318	-0.162309	-0.248779	-0.134732	0.497015	0.41066	0	0	-0.137596	-0.66903	0.403206	1.00451	1.1828	0	0
0.24	2.88473	1.4518	-1.18865	0.652938	0.454841	1.04492	0.256243	0.040857	-0.170567	0.638868	-0.119148	0	0	-0.176707	-0.0923712	-0.199908	1.00352	-0.160858	0	0	-0.291856	0.157751	-0.175441	-0.159984	-0.249329	-0.127295	0.493808	0.40025	0	0	-0.140149	-0.664691	0.419023	0.9977	1.17636	0	0
0.25	2.92221	1.44903	-1.22495	0.653686	0.464951	1.04659	0.240317	0.0415062	-0.16657	0.636906	-0.111098	0	0	-0.155265	-0.088891	-0.195494	1.04201	-0.140315	0	0	-0.302496	0.154373	-0.161492	-0.158704	-0.22563	-0.223026	0.489651	0.483458	0	0	-0.127863	-0.66464	0.457968	0.989488	1.1579	0	0
0.26	2.96019	1.44596	-1.26247	0.654462	0.474928	1.04824	0.223943	0.0414979	-0.163594	0.633497	-0.103614	0	0	-0.133332	-0.0849396	-0.191396	1.07594	-0.124826	0	0	-0.308614	0.149881	-0.156777	-0.160747	-0.243422	-0.146468	0.491872	0.392981	0	0	-0.127282	-0.662781	0.48365	0.98096	1.14173	0	0
0.27	2.99814	1.4445	-1.30039	0.655214	0.484919	1.0499	0.20882	0.0404567	-0.162226	0.629258	-0.0980833	0	0	-0.109593	-0.0804137	-0.187134	1.10517	-0.115148	0	0	-0.314251	0.144372	-0.149304	-0.159718	-0.240478	-0.15399	0.488176	0.39426	0	0	-0.12846	-0.65575	0.498224	0.970628	1.14225	0	0
0.28	3.03279	1.44493	-1.33592	0.655966	0.494946	1.05137	0.195464	0.0390417	-0.161356	0.624427	-0.0924464	0	0	-0.0839055	-0.0760987	-0.184291	1.13015	-0.106724	0	0	-0.317101	0.138489	-0.141034	-0.159873	-0.237702	-0.162326	0.484643	0.396249	0	0	-0.13026	-0.647788	0.512461	0.959178	1.14309	0	0
0.29	3.06477	1.44608	-1.36916	0.656672	0.504979	1.05276	0.182412	0.0376334	-0.161373	0.618748	-0.0868485	0	0	-0.0577649	-0.0722741	-0.182264	1.15052	-0.0989358	0	0	-0.318565	0.13276	-0.1326	-0.160725	-0.235041	-0.171787	0.481292	0.398779	0	0	-0.132791	-0.639362	0.525861	0.94763	1.14187	0	0
